<?xml version="1.0" standalone="no"?>
<!DOCTYPE svg PUBLIC "-//W3C//DTD SVG 20010904//EN"
 "http://www.w3.org/TR/2001/REC-SVG-20010904/DTD/svg10.dtd">
<svg version="1.0" xmlns="http://www.w3.org/2000/svg"
 width="1024.000000pt" height="1024.000000pt" viewBox="0 0 1024.000000 1024.000000"
 preserveAspectRatio="xMidYMid meet">
<metadata>
Created by potrace 1.16, written by Peter Selinger 2001-2019
</metadata>
<g transform="translate(-120,1180.000000) scale(0.120000,-0.120000)"
fill="#000000">
<path d="M4612 7791 c-164 -57 -272 -212 -272 -392 0 -40 -1 -41 -18 -26 -10
9 -44 29 -77 44 -53 25 -71 28 -160 28 -91 0 -106 -3 -165 -31 -179 -84 -268
-277 -227 -487 10 -48 35 -137 57 -199 22 -61 39 -113 37 -114 -1 -2 -27 4
-56 13 -86 25 -203 15 -284 -25 -161 -80 -247 -261 -219 -460 14 -103 34 -160
133 -390 44 -103 110 -257 146 -342 36 -85 91 -216 123 -290 69 -160 179 -423
225 -535 18 -44 62 -152 98 -240 192 -474 306 -665 521 -880 206 -205 406
-316 668 -372 103 -22 377 -24 488 -5 731 130 1348 611 1568 1222 61 168 95
327 137 630 60 439 145 753 289 1075 149 334 65 577 -216 627 -154 27 -360
-62 -521 -225 -88 -90 -185 -245 -258 -412 l-63 -146 -24 48 c-31 59 -104 244
-189 473 -35 96 -84 229 -108 295 -25 66 -83 228 -130 360 -111 313 -142 389
-178 450 -64 105 -158 188 -256 226 -86 34 -217 32 -293 -3 -79 -37 -124 -73
-174 -141 l-42 -57 -36 58 c-40 67 -121 146 -186 185 -96 56 -239 72 -338 38z
m236 -193 c51 -26 109 -88 153 -164 27 -49 131 -320 284 -744 258 -719 307
-846 331 -867 36 -33 79 -30 116 7 27 27 30 36 25 73 -2 23 -46 159 -97 302
-50 143 -146 418 -212 612 -107 315 -120 361 -125 440 -7 102 4 145 49 209 84
118 238 116 350 -3 55 -60 95 -136 142 -270 316 -910 454 -1279 554 -1480 l35
-71 -42 -51 c-62 -74 -119 -122 -266 -221 -237 -160 -348 -276 -436 -455 -58
-119 -87 -227 -96 -352 l-6 -92 31 -30 c32 -33 64 -39 106 -20 33 15 52 59 60
137 11 116 77 281 155 385 56 76 165 175 277 252 295 203 376 296 499 575 164
372 258 511 409 609 77 50 139 71 213 71 66 0 107 -20 129 -62 25 -49 15 -164
-24 -258 -156 -378 -194 -490 -246 -728 -19 -86 -47 -231 -61 -322 -14 -91
-33 -210 -42 -265 -34 -215 -104 -449 -181 -601 -47 -93 -142 -231 -227 -327
-280 -320 -732 -554 -1179 -608 -253 -31 -520 35 -738 182 -219 148 -445 455
-583 793 -126 310 -183 447 -300 721 -74 171 -163 378 -200 460 -271 608 -295
671 -295 776 0 94 51 188 123 226 46 25 141 22 194 -5 91 -47 154 -139 273
-397 80 -173 223 -493 265 -590 24 -58 54 -123 64 -144 46 -90 171 -73 171 24
0 16 -27 95 -61 175 -160 381 -532 1328 -551 1402 -44 176 15 324 144 359 110
29 220 -33 310 -177 28 -44 137 -294 213 -489 26 -66 110 -280 187 -475 77
-195 153 -389 169 -430 42 -109 96 -137 159 -83 29 24 31 30 27 72 -2 25 -32
120 -66 211 -93 244 -227 610 -271 735 -21 61 -57 162 -80 225 -23 63 -65 183
-93 265 -48 140 -51 156 -52 250 0 87 3 106 25 149 54 108 171 142 288 84z"/>
<path d="M2885 7081 c-42 -18 -165 -257 -206 -400 -93 -321 -55 -717 98 -1030
49 -100 154 -268 181 -288 40 -32 112 0 112 51 0 13 -29 71 -65 129 -102 168
-163 328 -196 522 -36 204 -18 467 43 650 28 84 77 194 104 235 26 38 31 87
12 113 -16 20 -57 29 -83 18z"/>
<path d="M2244 6072 c-38 -25 -37 -80 2 -252 65 -286 244 -611 448 -809 47
-46 62 -55 92 -55 42 0 64 23 64 66 0 20 -20 52 -76 117 -205 239 -358 540
-415 815 -10 48 -26 97 -35 107 -17 19 -59 25 -80 11z"/>
</g>
</svg>
